PathFileType	4	(X/Y/Z)
DataRate	CameraRate	NumFrames	NumMarkers	Units	OrigDataRate	OrigDataStartFrame	OrigNumFrames	
	120.0	120.0	9	39	mm	120.0	29	231
Frame#	Time	midhip	hip_r	hip_l	knee_r	knee_l	ankle_r	ankle_l	midasis	asis_r	asis_l	psis_r	psis_l	epicondLat_r	epicondLat_l	epicondMed_r	epicondMed_l	malleolusLat_r	malleolusLat_l	malleolusMedv_r	malleolusMedv_l	heel_r	heel_l	sternalnotch	xyphoidprocess	neck	subclavicle_r	subclavicle_l	toe_r	toe_l	thighwand_r	thighwand_l	upperleg1_r	upperleg1_l	upperleg2_r	upperleg2_l	shankwand_r	shankwand_l	lowerleg1_r	lowerleg1_l
	X1	Y1	Z1	X2	Y2	Z2	X3	Y3	Z3	X4	Y4	Z4	X5	Y5	Z5	X6	Y6	Z6	X7	Y7	Z7	X8	Y8	Z8	X9	Y9	Z9	X10	Y10	Z10	X11	Y11	Z11	X12	Y12	Z12	X13	Y13	Z13	X14	Y14	Z14	X15	Y15	Z15	X16	Y16	Z16	X17	Y17	Z17	X18	Y18	Z18	X19	Y19	Z19	X20	Y20	Z20	X21	Y21	Z21	X22	Y22	Z22	X23	Y23	Z23	X24	Y24	Z24	X25	Y25	Z25	X26	Y26	Z26	X27	Y27	Z27	X28	Y28	Z28	X29	Y29	Z29	X30	Y30	Z30	X31	Y31	Z31	X32	Y32	Z32	X33	Y33	Z33	X34	Y34	Z34	X35	Y35	Z35	X36	Y36	Z36	X37	Y37	Z37	X38	Y38	Z38	X39	Y39	Z39

	29	0.24167	1450.116	834.313	-260.284	1463.035	834.980	-202.990	1437.197	833.647	-317.577	1439.569	459.165	-179.288	1430.637	465.114	-343.073	1420.568	63.402	-174.164	1415.041	65.875	-355.546	1525.182	899.288	-271.857	1538.940	901.185	-171.963	1511.424	897.390	-371.750	1379.553	963.068	-228.244	1374.504	961.720	-283.357	1453.318	461.661	-126.093	1436.157	468.758	-397.170	1419.986	452.241	-230.446	1419.616	451.385	-292.277	1410.242	64.378	-137.088	1408.818	67.304	-393.513	1442.390	76.384	-201.809	1438.749	76.026	-333.245	1373.507	42.807	-168.757	1370.390	47.663	-343.308	1513.375	1296.521	-289.639	1580.985	1134.897	-286.334	1431.560	1347.358	-274.190	1534.916	1290.176	-231.018	1522.341	1283.455	-340.069	1533.794	41.049	-126.958	1532.180	38.962	-407.145	1585.598	618.353	-200.229	1565.019	622.887	-325.340	1518.750	675.142	-151.050	1495.218	671.732	-380.160	1503.711	590.161	-145.757	1491.629	583.679	-377.499	1409.083	186.667	-67.147	1359.153	184.811	-443.343	1413.945	192.713	-108.631	1380.718	189.284	-405.607
	30	0.25000	1450.082	834.321	-260.298	1463.004	834.985	-203.005	1437.160	833.656	-317.591	1439.552	459.177	-179.278	1430.639	465.127	-343.075	1420.596	63.416	-174.160	1415.069	65.870	-355.545	1525.153	899.288	-271.874	1538.917	901.184	-171.978	1511.389	897.393	-371.769	1379.517	963.090	-228.256	1374.479	961.734	-283.360	1453.302	461.677	-126.083	1436.139	468.771	-397.174	1419.859	452.268	-230.431	1419.594	451.368	-292.191	1410.272	64.390	-137.083	1408.832	67.299	-393.509	1442.422	76.387	-201.800	1438.800	76.031	-333.246	1373.516	42.824	-168.765	1370.348	47.679	-343.279	1513.266	1296.506	-289.634	1580.957	1134.917	-286.297	1431.361	1347.347	-274.185	1534.818	1290.186	-231.025	1522.233	1283.432	-340.050	1533.801	41.057	-126.962	1532.185	38.981	-407.155	1585.575	618.339	-200.219	1565.006	622.897	-325.362	1518.732	675.136	-151.024	1495.187	671.710	-380.141	1503.646	590.127	-145.733	1491.582	583.622	-377.468	1409.088	186.681	-67.139	1359.126	184.818	-443.318	1413.978	192.722	-108.628	1380.739	189.299	-405.588
	31	0.25833	1450.054	834.343	-260.313	1462.979	835.007	-203.020	1437.129	833.680	-317.605	1439.517	459.185	-179.262	1430.638	465.150	-343.075	1420.608	63.445	-174.154	1415.089	65.872	-355.532	1525.129	899.306	-271.892	1538.899	901.200	-171.989	1511.359	897.411	-371.795	1379.490	963.125	-228.270	1374.462	961.755	-283.369	1453.273	461.689	-126.069	1436.098	468.793	-397.178	1419.761	452.291	-230.376	1419.536	451.401	-292.174	1410.289	64.417	-137.075	1408.825	67.300	-393.492	1442.458	76.446	-201.786	1438.836	76.077	-333.230	1373.518	42.850	-168.770	1370.329	47.675	-343.246	1513.160	1296.519	-289.622	1580.897	1134.950	-286.243	1431.225	1347.348	-274.205	1534.707	1290.218	-231.021	1522.138	1283.438	-340.023	1533.810	41.079	-126.963	1532.200	39.003	-407.169	1585.551	618.330	-200.213	1564.990	622.929	-325.399	1518.715	675.138	-151.013	1495.173	671.725	-380.132	1503.601	590.137	-145.707	1491.536	583.637	-377.468	1409.085	186.700	-67.129	1359.068	184.830	-443.279	1413.969	192.748	-108.610	1380.735	189.364	-405.583
	32	0.26667	1450.040	834.376	-260.330	1462.968	835.041	-203.038	1437.112	833.711	-317.622	1439.474	459.191	-179.238	1430.630	465.179	-343.071	1420.598	63.481	-174.144	1415.103	65.879	-355.510	1525.111	899.342	-271.915	1538.889	901.238	-171.998	1511.334	897.445	-371.831	1379.472	963.160	-228.283	1374.457	961.773	-283.385	1453.236	461.699	-126.047	1436.027	468.821	-397.181	1419.710	452.285	-230.252	1419.503	451.423	-292.343	1410.283	64.450	-137.064	1408.794	67.306	-393.463	1442.470	76.527	-201.774	1438.862	76.144	-333.231	1373.511	42.875	-168.770	1370.351	47.656	-343.224	1513.027	1296.564	-289.610	1580.800	1135.011	-286.213	1431.039	1347.390	-274.266	1534.556	1290.266	-231.005	1522.024	1283.486	-340.005	1533.815	41.109	-126.962	1532.209	39.023	-407.188	1585.530	618.327	-200.213	1564.966	622.980	-325.454	1518.705	675.155	-151.029	1495.172	671.778	-380.147	1503.585	590.174	-145.675	1491.525	583.728	-377.544	1409.076	186.719	-67.117	1358.973	184.843	-443.221	1413.939	192.779	-108.579	1380.684	189.445	-405.581
	33	0.27500	1450.048	834.413	-260.352	1462.981	835.082	-203.061	1437.115	833.744	-317.642	1439.430	459.200	-179.204	1430.615	465.211	-343.066	1420.561	63.512	-174.130	1415.114	65.894	-355.486	1525.102	899.396	-271.944	1538.891	901.298	-172.010	1511.314	897.494	-371.879	1379.459	963.179	-228.295	1374.463	961.777	-283.407	1453.198	461.713	-126.014	1435.926	468.851	-397.184	1419.715	452.300	-230.149	1419.505	451.502	-292.524	1410.251	64.479	-137.049	1408.746	67.321	-393.428	1442.441	76.595	-201.766	1438.876	76.208	-333.248	1373.499	42.886	-168.764	1370.412	47.610	-343.218	1512.868	1296.619	-289.602	1580.787	1135.127	-286.201	1430.736	1347.417	-274.302	1534.362	1290.325	-230.979	1521.911	1283.562	-340.001	1533.811	41.136	-126.959	1532.200	39.042	-407.210	1585.513	618.330	-200.224	1564.936	623.044	-325.539	1518.694	675.202	-151.046	1495.162	671.885	-380.184	1503.594	590.253	-145.654	1491.522	583.897	-377.639	1409.064	186.733	-67.098	1358.839	184.855	-443.139	1413.903	192.801	-108.556	1380.574	189.510	-405.558
	34	0.28333	1450.080	834.450	-260.380	1463.020	835.126	-203.091	1437.140	833.775	-317.669	1439.386	459.210	-179.159	1430.596	465.243	-343.064	1420.499	63.531	-174.114	1415.127	65.919	-355.462	1525.104	899.468	-271.983	1538.907	901.378	-172.025	1511.300	897.558	-371.941	1379.452	963.174	-228.305	1374.481	961.765	-283.432	1453.163	461.730	-125.972	1435.799	468.880	-397.193	1419.747	452.343	-230.121	1418.449	451.970	-292.401	1410.194	64.495	-137.031	1408.683	67.346	-393.392	1442.369	76.574	-201.763	1438.868	76.236	-333.247	1373.487	42.878	-168.751	1370.457	47.559	-343.211	1512.720	1296.682	-289.597	1580.840	1135.274	-286.223	1430.478	1347.395	-274.295	1534.185	1290.390	-230.958	1521.810	1283.658	-340.001	1533.796	41.155	-126.954	1532.169	39.055	-407.234	1585.504	618.334	-200.248	1564.909	623.110	-325.664	1518.692	675.247	-151.060	1495.124	671.987	-380.235	1503.621	590.350	-145.660	1490.996	583.913	-377.681	1409.053	186.736	-67.070	1358.673	184.863	-443.031	1413.849	192.817	-108.537	1380.418	189.539	-405.499
	35	0.29167	1450.136	834.487	-260.418	1463.084	835.170	-203.131	1437.188	833.804	-317.705	1439.349	459.221	-179.106	1430.573	465.272	-343.071	1420.425	63.534	-174.095	1415.142	65.951	-355.440	1525.116	899.553	-272.031	1538.938	901.471	-172.044	1511.295	897.635	-372.017	1379.501	963.128	-228.329	1374.507	961.739	-283.458	1453.137	461.749	-125.922	1435.654	468.907	-397.212	1419.726	452.358	-230.041	1415.402	453.078	-291.914	1410.127	64.497	-137.010	1408.614	67.378	-393.356	1442.289	76.514	-201.754	1438.841	76.234	-333.235	1373.478	42.854	-168.729	1370.437	47.552	-343.192	1512.592	1296.742	-289.585	1580.856	1135.394	-286.237	1430.319	1347.366	-274.307	1534.054	1290.456	-230.947	1521.702	1283.738	-339.986	1533.773	41.163	-126.947	1532.125	39.060	-407.256	1585.508	618.332	-200.288	1564.903	623.170	-325.839	1518.706	675.266	-151.080	1495.088	672.069	-380.298	1503.641	590.400	-145.653	1489.532	583.556	-377.668	1409.051	186.731	-67.032	1358.485	184.864	-442.901	1413.802	192.815	-108.510	1380.242	189.537	-405.416
	36	0.30000	1450.211	834.525	-260.468	1463.166	835.216	-203.183	1437.256	833.835	-317.753	1439.322	459.232	-179.044	1430.560	465.305	-343.074	1420.347	63.527	-174.073	1415.177	65.983	-355.426	1525.142	899.647	-272.089	1538.980	901.572	-172.072	1511.304	897.722	-372.106	1379.721	963.008	-228.408	1374.540	961.703	-283.489	1453.125	461.770	-125.865	1435.491	468.936	-397.228	1419.734	452.351	-229.946	1419.638	451.744	-292.826	1410.060	64.486	-136.985	1408.544	67.411	-393.323	1442.256	76.538	-201.722	1438.805	76.239	-333.226	1373.470	42.824	-168.696	1370.398	47.574	-343.168	1512.468	1296.798	-289.567	1580.810	1135.485	-286.186	1430.194	1347.367	-274.354	1533.945	1290.540	-230.954	1521.574	1283.784	-339.947	1533.750	41.164	-126.941	1532.096	39.052	-407.276	1585.527	618.318	-200.348	1564.955	623.228	-326.086	1518.728	675.292	-151.093	1495.072	672.159	-380.376	1503.680	590.423	-145.639	1491.419	584.340	-377.968	1409.069	186.721	-66.981	1358.289	184.861	-442.754	1413.771	192.805	-108.468	1380.064	189.535	-405.325
	37	0.30833	1450.308	834.563	-260.535	1463.269	835.259	-203.251	1437.347	833.866	-317.819	1439.304	459.241	-178.977	1430.579	465.348	-343.045	1420.279	63.515	-174.047	1415.251	66.007	-355.421	1525.183	899.747	-272.159	1539.036	901.676	-172.113	1511.331	897.818	-372.204	1380.039	962.846	-228.525	1374.573	961.660	-283.529	1453.132	461.793	-125.804	1435.313	468.970	-397.218	1419.759	452.351	-229.932	1416.666	452.942	-291.958	1410.008	64.471	-136.955	1408.481	67.440	-393.294	1442.235	76.563	-201.680	1438.773	76.253	-333.214	1373.462	42.800	-168.652	1370.362	47.608	-343.134	1512.326	1296.870	-289.553	1580.656	1135.552	-286.142	1430.101	1347.412	-274.424	1533.813	1290.624	-230.958	1521.423	1283.843	-339.914	1533.734	41.165	-126.937	1532.087	39.041	-407.295	1585.562	618.284	-200.432	1565.107	623.296	-326.439	1518.778	675.296	-151.130	1495.041	672.197	-380.474	1503.741	590.431	-145.670	1489.898	583.960	-377.903	1409.120	186.710	-66.915	1358.097	184.859	-442.599	1413.747	192.801	-108.417	1379.910	189.536	-405.243
